<svg width="32" height="32" viewBox="0 0 32 32" fill="none" xmlns="http://www.w3.org/2000/svg">
<mask id="mask0_6_70" maskUnits="userSpaceOnUse" x="0" y="0" width="32" height="32">
<path d="M0 0H31.9839V32H0V0Z" fill="white"/>
</mask>
<g mask="url(#mask0_6_70)">
<mask id="mask1_6_70" maskUnits="userSpaceOnUse" x="-3" y="-8" width="46" height="43">
<path d="M16.3891 -7.7077L42.28 10.0496L23.3889 34.3866L-2.50201 16.6293L16.3891 -7.7077Z" fill="white"/>
</mask>
<g mask="url(#mask1_6_70)">
<mask id="mask2_6_70" maskUnits="userSpaceOnUse" x="-3" y="-8" width="46" height="43">
<path d="M16.3891 -7.7077L42.28 10.0496L23.3889 34.3866L-2.50201 16.6293L16.3891 -7.7077Z" fill="white"/>
</mask>
<g mask="url(#mask2_6_70)">
<mask id="mask3_6_70" maskUnits="userSpaceOnUse" x="-3" y="-8" width="46" height="43">
<path d="M16.3891 -7.7077L42.28 10.0494L23.3889 34.3866L-2.50201 16.6293L16.3891 -7.7077Z" fill="white"/>
</mask>
<g mask="url(#mask3_6_70)">
<mask id="mask4_6_70" maskUnits="userSpaceOnUse" x="-3" y="-8" width="46" height="43">
<path d="M16.3892 -7.7077L42.2801 10.0494L23.4025 34.3693L-2.48868 16.612L16.3892 -7.7077Z" fill="white"/>
</mask>
<g mask="url(#mask4_6_70)">
<path d="M17.9553 21.3166L12.4158 17.5175C13.0146 16.0971 13.0163 14.5158 12.4193 13.0931L20.5541 9.74645C21.2524 10.6392 22.2293 11.3091 23.3492 11.6633L22.4512 19.9669C20.825 19.8613 19.2147 20.3429 17.9553 21.3166ZM25.7788 21.0936C25.7099 21.0463 25.6342 21.021 25.5613 20.9742L26.5317 11.992C28.2147 11.7524 29.7275 10.8927 30.7325 9.60231C31.7418 8.31119 32.1619 6.69895 31.8992 5.11814C31.6403 3.53685 30.72 2.11767 29.3454 1.17509C27.9708 0.23227 26.2547 -0.156907 24.5714 0.0923837C22.8919 0.341202 21.3869 1.20935 20.3844 2.50495C19.3861 3.80032 18.9769 5.41658 19.2476 6.99621L10.4512 10.6144C10.3811 10.5595 10.3278 10.4967 10.2542 10.4461C8.95903 9.55127 7.35395 9.14579 5.75893 9.31308C4.16139 9.47896 2.68729 10.2027 1.63047 11.3419C0.577433 12.4806 0.0135816 13.9511 0.0568193 15.4608C0.100309 16.9705 0.747116 18.4107 1.86577 19.4924C2.98668 20.5758 4.49774 21.2247 6.10207 21.3086C7.70488 21.3948 9.28583 20.9097 10.5274 19.9501L16.0669 23.7495C15.4791 25.151 15.4713 26.7082 16.0478 28.1167C16.6234 29.5213 17.7398 30.6741 19.1765 31.3417C20.6114 32.0116 22.2655 32.1493 23.8019 31.7264C25.3429 31.3067 26.6574 30.3575 27.4879 29.0697C28.3185 27.7819 28.6026 26.2453 28.2876 24.7677C27.9688 23.2909 27.0747 21.979 25.7788 21.0936Z" fill="#625AFA"/>
</g>
</g>
</g>
</g>
</g>
</svg>
